<svg width="128" height="128" viewBox="0 0 128 128" fill="none" xmlns="http://www.w3.org/2000/svg" role="img" aria-labelledby="title desc">
  <title id="title">Mycelium glyph</title>
  <desc id="desc">A monoline branching routing glyph representing Mycelium.</desc>
  <rect width="128" height="128" rx="24" fill="#0B0F0D"/>
  <rect x="1" y="1" width="126" height="126" rx="23" stroke="#173024" stroke-width="2"/>
  <g stroke-linecap="round" stroke-linejoin="round">
    <g stroke="#426754" stroke-width="7" opacity="0.45">
      <path d="M22 64H44"/>
      <path d="M44 64C58 64 60 42 74 42H92"/>
      <path d="M44 64C58 64 60 86 74 86H104"/>
      <path d="M74 42C84 42 88 32 98 32H106"/>
    </g>
    <g stroke="#8FD68B" stroke-width="8">
      <path d="M22 64H44"/>
      <path d="M44 64C58 64 60 42 74 42H92"/>
    </g>
  </g>
  <g fill="#0B0F0D" stroke="#6D8F77" stroke-width="3">
    <circle cx="44" cy="64" r="6"/>
    <circle cx="74" cy="42" r="6"/>
    <circle cx="74" cy="86" r="6"/>
    <circle cx="92" cy="42" r="6"/>
  </g>
  <g fill="#8FD68B" stroke="#0B0F0D" stroke-width="2">
    <circle cx="44" cy="64" r="5"/>
    <circle cx="74" cy="42" r="5"/>
    <circle cx="92" cy="42" r="5"/>
  </g>
</svg>
